<svg xmlns="http://www.w3.org/2000/svg" width="512" height="512" viewBox="0 0 512 512" role="img" aria-labelledby="title desc">
  <title id="title">Asterframe project icon</title>
  <desc id="desc">A dark navy interface frame containing a blue-to-violet asterisk.</desc>
  <defs>
    <linearGradient id="bg" x1="0" y1="0" x2="1" y2="1">
      <stop offset="0" stop-color="#f7faff"/>
      <stop offset="1" stop-color="#ffffff"/>
    </linearGradient>
    <linearGradient id="accent" x1="0" y1="0" x2="1" y2="1">
      <stop offset="0" stop-color="#0878ff"/>
      <stop offset="0.5" stop-color="#3c39ff"/>
      <stop offset="1" stop-color="#7a00ff"/>
    </linearGradient>
    <filter id="shadow" x="-20%" y="-20%" width="140%" height="140%">
      <feDropShadow dx="0" dy="10" stdDeviation="18" flood-color="#071a3d" flood-opacity="0.12"/>
    </filter>
  </defs>
  <rect x="24" y="24" width="464" height="464" rx="96" fill="url(#bg)" filter="url(#shadow)"/>
  <g transform="translate(96 92)">
    <path d="M22 104V60C22 32 44 10 72 10H248C276 10 298 32 298 60V104" fill="none" stroke="#071a3d" stroke-width="20" stroke-linecap="round"/>
    <path d="M22 224V268C22 296 44 318 72 318H130M190 318H248C276 318 298 296 298 268V224" fill="none" stroke="#071a3d" stroke-width="20" stroke-linecap="round"/>
    <path d="M22 104H128M192 104H298" fill="none" stroke="#071a3d" stroke-width="20" stroke-linecap="round"/>
    <circle cx="72" cy="62" r="9" fill="#071a3d"/>
    <circle cx="106" cy="62" r="9" fill="#071a3d"/>
    <circle cx="140" cy="62" r="9" fill="#071a3d"/>
    <g transform="translate(160 190)" stroke="url(#accent)" stroke-width="20" stroke-linecap="round">
      <path d="M0-102V-48M0 48V102M-102 0H-48M48 0H102"/>
      <path d="M-72-72L-34-34M34 34L72 72M72-72L34-34M-34 34L-72 72"/>
      <path d="M0-38V38M-38 0H38M-27-27L27 27M27-27L-27 27"/>
    </g>
  </g>
</svg>
